<?xml version="1.0" standalone="no"?>
<!DOCTYPE svg PUBLIC "-//W3C//DTD SVG 20010904//EN"
 "http://www.w3.org/TR/2001/REC-SVG-20010904/DTD/svg10.dtd">
<svg version="1.0" xmlns="http://www.w3.org/2000/svg"
 width="216.000000pt" height="217.000000pt" viewBox="0 0 216.000000 217.000000"
 preserveAspectRatio="xMidYMid meet">

<g transform="translate(0.000000,217.000000) scale(0.100000,-0.100000)"
fill="#000000" stroke="none">
<path d="M650 2135 l0 -25 125 0 c69 0 125 -3 125 -6 0 -3 -21 -54 -46 -113
-25 -58 -91 -209 -146 -336 -54 -126 -105 -243 -113 -260 -48 -107 -129 -298
-138 -326 -5 -15 -188 -440 -222 -514 -106 -236 -233 -540 -229 -547 6 -9
2144 -11 2144 -2 0 4 -20 43 -44 88 -53 98 -125 234 -200 379 -75 145 -184
344 -211 388 -13 19 -46 56 -75 82 -145 131 -331 143 -474 31 -94 -74 -137
-157 -195 -377 -82 -310 -100 -358 -148 -403 -31 -28 -107 -33 -152 -10 -123
64 -152 367 -47 487 32 36 102 86 153 109 31 13 43 25 43 39 0 20 -6 21 -90
21 -49 0 -90 1 -90 3 0 7 43 114 50 122 4 6 17 39 29 75 12 36 30 83 40 105
10 22 35 81 55 130 20 50 43 104 51 120 8 17 24 55 35 85 12 30 29 73 39 95
18 38 42 95 125 300 21 50 45 108 55 130 10 22 24 55 31 73 l12 32 129 0 129
0 0 25 0 25 -375 0 -375 0 0 -25z m761 -1358 c74 -50 129 -175 129 -296 0
-168 -91 -321 -238 -399 l-60 -32 -157 0 -158 0 33 23 c71 48 104 119 175 377
50 183 58 205 91 260 53 89 117 113 185 67z m-882 -500 c25 -78 74 -146 144
-197 l38 -28 -63 -7 c-35 -3 -131 -5 -215 -3 l-152 3 19 40 c10 22 35 80 56
130 20 50 45 108 55 130 10 22 27 65 39 95 12 30 29 71 38 91 l17 36 6 -126
c4 -69 12 -143 18 -164z"/>
</g>
</svg>
